<mxfile host="Electron" modified="2023-10-11T17:48:24.416Z" agent="Mozilla/5.0 (Windows NT 10.0; Win64; x64) AppleWebKit/537.36 (KHTML, like Gecko) draw.io/22.0.2 Chrome/114.0.5735.289 Electron/25.8.4 Safari/537.36" etag="MkF517qg4DE7O59emzbB" version="22.0.2" type="device">
  <diagram name="Page-1" id="1IhoYlFtL5erMES3WMj8">
    <mxGraphModel dx="909" dy="1635" grid="1" gridSize="10" guides="1" tooltips="1" connect="1" arrows="1" fold="1" page="1" pageScale="1" pageWidth="850" pageHeight="1100" background="none" math="0" shadow="0">
      <root>
        <mxCell id="0" />
        <mxCell id="1" parent="0" />
        <mxCell id="WGDnAh9ubJ5xFY3CZQTw-1" value="&lt;font style=&quot;font-size: 20px;&quot;&gt;Admin&lt;/font&gt;" style="rounded=0;whiteSpace=wrap;html=1;" parent="1" vertex="1">
          <mxGeometry x="230" y="250" width="120" height="60" as="geometry" />
        </mxCell>
        <mxCell id="WGDnAh9ubJ5xFY3CZQTw-8" value="&lt;font style=&quot;font-size: 20px;&quot;&gt;Login&lt;br&gt;Form&lt;/font&gt;" style="ellipse;whiteSpace=wrap;html=1;" parent="1" vertex="1">
          <mxGeometry x="560" y="240" width="120" height="80" as="geometry" />
        </mxCell>
        <mxCell id="WGDnAh9ubJ5xFY3CZQTw-11" value="" style="endArrow=classic;html=1;rounded=0;exitX=1;exitY=0.5;exitDx=0;exitDy=0;entryX=0;entryY=0.5;entryDx=0;entryDy=0;" parent="1" source="WGDnAh9ubJ5xFY3CZQTw-1" target="WGDnAh9ubJ5xFY3CZQTw-8" edge="1">
          <mxGeometry width="50" height="50" relative="1" as="geometry">
            <mxPoint x="620.0000000000043" y="280" as="sourcePoint" />
            <mxPoint x="620" y="240" as="targetPoint" />
          </mxGeometry>
        </mxCell>
        <mxCell id="WGDnAh9ubJ5xFY3CZQTw-12" value="&lt;font style=&quot;font-size: 15px;&quot;&gt;Login Credentials&lt;/font&gt;" style="edgeLabel;html=1;align=center;verticalAlign=middle;resizable=0;points=[];" parent="WGDnAh9ubJ5xFY3CZQTw-11" vertex="1" connectable="0">
          <mxGeometry x="-0.1087" y="-1" relative="1" as="geometry">
            <mxPoint x="6" y="-1" as="offset" />
          </mxGeometry>
        </mxCell>
        <mxCell id="WGDnAh9ubJ5xFY3CZQTw-13" value="" style="endArrow=classic;html=1;rounded=0;exitX=1;exitY=0.5;exitDx=0;exitDy=0;entryX=0;entryY=0.5;entryDx=0;entryDy=0;" parent="1" source="WGDnAh9ubJ5xFY3CZQTw-8" target="WGDnAh9ubJ5xFY3CZQTw-15" edge="1">
          <mxGeometry width="50" height="50" relative="1" as="geometry">
            <mxPoint x="610" y="320" as="sourcePoint" />
            <mxPoint x="910" y="430" as="targetPoint" />
          </mxGeometry>
        </mxCell>
        <mxCell id="WGDnAh9ubJ5xFY3CZQTw-14" value="&lt;font style=&quot;font-size: 15px;&quot;&gt;Login Success&lt;/font&gt;" style="edgeLabel;html=1;align=center;verticalAlign=middle;resizable=0;points=[];" parent="WGDnAh9ubJ5xFY3CZQTw-13" vertex="1" connectable="0">
          <mxGeometry x="-0.0877" y="2" relative="1" as="geometry">
            <mxPoint x="5" y="2" as="offset" />
          </mxGeometry>
        </mxCell>
        <mxCell id="WGDnAh9ubJ5xFY3CZQTw-15" value="&lt;font style=&quot;font-size: 20px;&quot;&gt;DashBoard&lt;/font&gt;" style="ellipse;whiteSpace=wrap;html=1;" parent="1" vertex="1">
          <mxGeometry x="890" y="240" width="120" height="80" as="geometry" />
        </mxCell>
        <mxCell id="WGDnAh9ubJ5xFY3CZQTw-29" value="" style="endArrow=classic;html=1;rounded=0;exitX=0.5;exitY=1;exitDx=0;exitDy=0;entryX=0.5;entryY=0;entryDx=0;entryDy=0;" parent="1" source="WGDnAh9ubJ5xFY3CZQTw-15" target="WGDnAh9ubJ5xFY3CZQTw-31" edge="1">
          <mxGeometry width="50" height="50" relative="1" as="geometry">
            <mxPoint x="650" y="400" as="sourcePoint" />
            <mxPoint x="950" y="480" as="targetPoint" />
          </mxGeometry>
        </mxCell>
        <mxCell id="WGDnAh9ubJ5xFY3CZQTw-30" value="&lt;font style=&quot;font-size: 15px;&quot;&gt;Add Questions&lt;/font&gt;" style="edgeLabel;html=1;align=center;verticalAlign=middle;resizable=0;points=[];" parent="WGDnAh9ubJ5xFY3CZQTw-29" vertex="1" connectable="0">
          <mxGeometry x="-0.1515" y="1" relative="1" as="geometry">
            <mxPoint as="offset" />
          </mxGeometry>
        </mxCell>
        <mxCell id="WGDnAh9ubJ5xFY3CZQTw-31" value="&lt;font style=&quot;font-size: 20px;&quot;&gt;Add Question Form&lt;/font&gt;" style="ellipse;whiteSpace=wrap;html=1;" parent="1" vertex="1">
          <mxGeometry x="890" y="480" width="120" height="80" as="geometry" />
        </mxCell>
        <mxCell id="WGDnAh9ubJ5xFY3CZQTw-32" value="" style="endArrow=classic;html=1;rounded=0;exitX=0.5;exitY=1;exitDx=0;exitDy=0;entryX=0.5;entryY=0;entryDx=0;entryDy=0;" parent="1" source="WGDnAh9ubJ5xFY3CZQTw-31" target="WGDnAh9ubJ5xFY3CZQTw-33" edge="1">
          <mxGeometry width="50" height="50" relative="1" as="geometry">
            <mxPoint x="1000" y="490" as="sourcePoint" />
            <mxPoint x="1160" y="520" as="targetPoint" />
          </mxGeometry>
        </mxCell>
        <mxCell id="WGDnAh9ubJ5xFY3CZQTw-34" value="&lt;font style=&quot;font-size: 15px;&quot;&gt;Question credentials&lt;/font&gt;" style="edgeLabel;html=1;align=center;verticalAlign=middle;resizable=0;points=[];" parent="WGDnAh9ubJ5xFY3CZQTw-32" vertex="1" connectable="0">
          <mxGeometry x="-0.096" relative="1" as="geometry">
            <mxPoint as="offset" />
          </mxGeometry>
        </mxCell>
        <mxCell id="mSggaUejxgYCqKv2JaUr-1" style="edgeStyle=orthogonalEdgeStyle;rounded=1;orthogonalLoop=1;jettySize=auto;html=1;exitX=0;exitY=0.5;exitDx=0;exitDy=0;entryX=0;entryY=0.5;entryDx=0;entryDy=0;" edge="1" parent="1" source="WGDnAh9ubJ5xFY3CZQTw-33" target="WGDnAh9ubJ5xFY3CZQTw-31">
          <mxGeometry relative="1" as="geometry">
            <Array as="points">
              <mxPoint x="780" y="755" />
              <mxPoint x="780" y="520" />
            </Array>
          </mxGeometry>
        </mxCell>
        <mxCell id="mSggaUejxgYCqKv2JaUr-2" value="&lt;font style=&quot;font-size: 15px;&quot;&gt;Respond&lt;/font&gt;" style="edgeLabel;html=1;align=center;verticalAlign=middle;resizable=0;points=[];" vertex="1" connectable="0" parent="mSggaUejxgYCqKv2JaUr-1">
          <mxGeometry x="-0.0464" y="-1" relative="1" as="geometry">
            <mxPoint as="offset" />
          </mxGeometry>
        </mxCell>
        <mxCell id="WGDnAh9ubJ5xFY3CZQTw-33" value="Questions Table" style="html=1;dashed=0;whiteSpace=wrap;shape=partialRectangle;right=0;" parent="1" vertex="1">
          <mxGeometry x="866.6700000000001" y="730" width="166.67" height="50" as="geometry" />
        </mxCell>
        <mxCell id="WGDnAh9ubJ5xFY3CZQTw-41" value="" style="endArrow=classic;html=1;rounded=0;exitX=0.5;exitY=0;exitDx=0;exitDy=0;entryX=0.5;entryY=1;entryDx=0;entryDy=0;" parent="1" source="WGDnAh9ubJ5xFY3CZQTw-15" target="WGDnAh9ubJ5xFY3CZQTw-43" edge="1">
          <mxGeometry width="50" height="50" relative="1" as="geometry">
            <mxPoint x="949.57" y="240" as="sourcePoint" />
            <mxPoint x="949.57" y="80" as="targetPoint" />
          </mxGeometry>
        </mxCell>
        <mxCell id="WGDnAh9ubJ5xFY3CZQTw-42" value="&lt;font style=&quot;font-size: 15px;&quot;&gt;Display User&lt;/font&gt;" style="edgeLabel;html=1;align=center;verticalAlign=middle;resizable=0;points=[];" parent="WGDnAh9ubJ5xFY3CZQTw-41" vertex="1" connectable="0">
          <mxGeometry x="-0.1515" y="1" relative="1" as="geometry">
            <mxPoint as="offset" />
          </mxGeometry>
        </mxCell>
        <mxCell id="WGDnAh9ubJ5xFY3CZQTw-43" value="&lt;font style=&quot;font-size: 20px;&quot;&gt;Users&lt;br&gt;&lt;/font&gt;" style="ellipse;whiteSpace=wrap;html=1;" parent="1" vertex="1">
          <mxGeometry x="890.01" width="120" height="80" as="geometry" />
        </mxCell>
        <mxCell id="WGDnAh9ubJ5xFY3CZQTw-44" value="Users Table" style="html=1;dashed=0;whiteSpace=wrap;shape=partialRectangle;right=0;" parent="1" vertex="1">
          <mxGeometry x="536.67" y="15" width="166.67" height="50" as="geometry" />
        </mxCell>
        <mxCell id="WGDnAh9ubJ5xFY3CZQTw-45" value="" style="endArrow=classic;html=1;rounded=0;entryX=1;entryY=0.5;entryDx=0;entryDy=0;exitX=0;exitY=0.5;exitDx=0;exitDy=0;" parent="1" source="WGDnAh9ubJ5xFY3CZQTw-43" target="WGDnAh9ubJ5xFY3CZQTw-44" edge="1">
          <mxGeometry width="50" height="50" relative="1" as="geometry">
            <mxPoint x="840" y="70" as="sourcePoint" />
            <mxPoint x="790" y="120" as="targetPoint" />
          </mxGeometry>
        </mxCell>
        <mxCell id="WGDnAh9ubJ5xFY3CZQTw-46" value="&lt;span style=&quot;font-size: 15px;&quot;&gt;User Credentials&lt;/span&gt;" style="edgeLabel;html=1;align=center;verticalAlign=middle;resizable=0;points=[];" parent="WGDnAh9ubJ5xFY3CZQTw-45" vertex="1" connectable="0">
          <mxGeometry x="-0.0684" relative="1" as="geometry">
            <mxPoint as="offset" />
          </mxGeometry>
        </mxCell>
        <mxCell id="WGDnAh9ubJ5xFY3CZQTw-47" value="" style="endArrow=classic;html=1;rounded=1;exitX=0.5;exitY=0;exitDx=0;exitDy=0;entryX=0.5;entryY=0;entryDx=0;entryDy=0;" parent="1" source="WGDnAh9ubJ5xFY3CZQTw-44" target="WGDnAh9ubJ5xFY3CZQTw-43" edge="1">
          <mxGeometry width="50" height="50" relative="1" as="geometry">
            <mxPoint x="740" y="30" as="sourcePoint" />
            <mxPoint x="790" y="-20" as="targetPoint" />
            <Array as="points">
              <mxPoint x="620" y="-80" />
              <mxPoint x="950" y="-80" />
            </Array>
          </mxGeometry>
        </mxCell>
        <mxCell id="WGDnAh9ubJ5xFY3CZQTw-48" value="&lt;font style=&quot;font-size: 15px;&quot;&gt;Respond&lt;/font&gt;" style="edgeLabel;html=1;align=center;verticalAlign=middle;resizable=0;points=[];" parent="WGDnAh9ubJ5xFY3CZQTw-47" vertex="1" connectable="0">
          <mxGeometry x="0.0429" relative="1" as="geometry">
            <mxPoint as="offset" />
          </mxGeometry>
        </mxCell>
        <mxCell id="WGDnAh9ubJ5xFY3CZQTw-51" value="&lt;font style=&quot;font-size: 20px;&quot;&gt;Exams&lt;/font&gt;" style="ellipse;whiteSpace=wrap;html=1;" parent="1" vertex="1">
          <mxGeometry x="570" y="480" width="120" height="80" as="geometry" />
        </mxCell>
        <mxCell id="WGDnAh9ubJ5xFY3CZQTw-66" style="edgeStyle=orthogonalEdgeStyle;rounded=1;orthogonalLoop=1;jettySize=auto;html=1;exitX=0;exitY=0.5;exitDx=0;exitDy=0;entryX=0;entryY=0.5;entryDx=0;entryDy=0;" parent="1" source="WGDnAh9ubJ5xFY3CZQTw-52" target="WGDnAh9ubJ5xFY3CZQTw-51" edge="1">
          <mxGeometry relative="1" as="geometry">
            <Array as="points">
              <mxPoint x="470" y="755" />
              <mxPoint x="470" y="520" />
            </Array>
          </mxGeometry>
        </mxCell>
        <mxCell id="WGDnAh9ubJ5xFY3CZQTw-67" value="&lt;font style=&quot;font-size: 15px;&quot;&gt;Respond&lt;/font&gt;" style="edgeLabel;html=1;align=center;verticalAlign=middle;resizable=0;points=[];" parent="WGDnAh9ubJ5xFY3CZQTw-66" vertex="1" connectable="0">
          <mxGeometry x="-0.0581" y="1" relative="1" as="geometry">
            <mxPoint as="offset" />
          </mxGeometry>
        </mxCell>
        <mxCell id="WGDnAh9ubJ5xFY3CZQTw-52" value="Exams Table" style="html=1;dashed=0;whiteSpace=wrap;shape=partialRectangle;right=0;" parent="1" vertex="1">
          <mxGeometry x="536.6699999999998" y="730" width="166.67" height="50" as="geometry" />
        </mxCell>
        <mxCell id="WGDnAh9ubJ5xFY3CZQTw-58" style="edgeStyle=orthogonalEdgeStyle;rounded=1;orthogonalLoop=1;jettySize=auto;html=1;exitX=0;exitY=1;exitDx=0;exitDy=0;entryX=1.006;entryY=0.404;entryDx=0;entryDy=0;entryPerimeter=0;" parent="1" source="WGDnAh9ubJ5xFY3CZQTw-15" target="WGDnAh9ubJ5xFY3CZQTw-51" edge="1">
          <mxGeometry relative="1" as="geometry">
            <Array as="points">
              <mxPoint x="908" y="350" />
              <mxPoint x="780" y="350" />
              <mxPoint x="780" y="512" />
            </Array>
          </mxGeometry>
        </mxCell>
        <mxCell id="WGDnAh9ubJ5xFY3CZQTw-61" value="&lt;font style=&quot;font-size: 15px;&quot;&gt;Display Exam&lt;/font&gt;" style="edgeLabel;html=1;align=center;verticalAlign=middle;resizable=0;points=[];" parent="WGDnAh9ubJ5xFY3CZQTw-58" vertex="1" connectable="0">
          <mxGeometry x="0.1767" relative="1" as="geometry">
            <mxPoint as="offset" />
          </mxGeometry>
        </mxCell>
        <mxCell id="WGDnAh9ubJ5xFY3CZQTw-65" value="" style="endArrow=classic;html=1;rounded=0;exitX=0.5;exitY=1;exitDx=0;exitDy=0;entryX=0.56;entryY=-0.01;entryDx=0;entryDy=0;entryPerimeter=0;" parent="1" source="WGDnAh9ubJ5xFY3CZQTw-51" target="WGDnAh9ubJ5xFY3CZQTw-52" edge="1">
          <mxGeometry width="50" height="50" relative="1" as="geometry">
            <mxPoint x="610" y="730" as="sourcePoint" />
            <mxPoint x="660" y="680" as="targetPoint" />
          </mxGeometry>
        </mxCell>
        <mxCell id="WGDnAh9ubJ5xFY3CZQTw-70" value="&lt;font style=&quot;font-size: 15px;&quot;&gt;Exam Credentials&lt;/font&gt;" style="edgeLabel;html=1;align=center;verticalAlign=middle;resizable=0;points=[];" parent="WGDnAh9ubJ5xFY3CZQTw-65" vertex="1" connectable="0">
          <mxGeometry x="0.0177" relative="1" as="geometry">
            <mxPoint y="-16" as="offset" />
          </mxGeometry>
        </mxCell>
      </root>
    </mxGraphModel>
  </diagram>
</mxfile>
